<?xml version="1.0" encoding="UTF-8"?>
<svg version="1.1" viewBox="0 0 2048 703" width="1280" height="1280" xmlns="http://www.w3.org/2000/svg">
<path transform="translate(0)" d="m0 0h2048v703h-2048z"/>
<path transform="translate(969,59)" d="m0 0 4 4-8 16-20 39-19 38-10 19-14 28-10 19-20 40-10 19-17 34-3 5v2l16 8 7 6 9 13 5 13 2 13v12l-2 13-4 12 15-33 13-26 10-19 18-36 10-19 24-47 12-23 11-22 10-19 8-16 9-17-1-6-2-6h-2l-5-10 1-5-4-7-1-6h-2l-1-6-2-5h2l1 4h2l5 12 15 31-1 7-15 29-21 41-11 22-10 19-14 28-10 19-16 32-10 19-20 40-6 11-17 34-12 22-10 19-8 16-10 19-10 21-7 14v3l6-4 10-10h2l2-4 6-7 5-5 3-1v-2h2l2-4 4-2 2-4 4-2 2-4 54-54h2l2-4 8-8h2l2-4 31-31 2-3 1-22 4-17 7-13 3-4 4 1 11 11-1 5-5 12-1 6 11-9 4-2 1-3h3l2-5 13-12 4-4-1-5-1-14-15-31-2-8 3-3 5 7v2h2l15 31v2h2v2l7 1 8 1v-2l11-6 17-10h2v-2l13-6-5-12-20-41-11-23-5-10-4-12h5l4 6v2h2l13 26 11 23 3 6 2 9h2l10 20v2l34-11 23-5 7-1h30l20 3 20 6 17 8 15 10 13 12 8 8 5 6 3 6 9 14 9 21 4 13 4 21 1 11v11l-2 19-4 19-6 17-9 19-10 16-11 14-19 19-16 12-14 9-4-2-8-18-2-6 5 1 1 5 4 5 3 7 4-1 14-10 13-10 8-7 8-9 10-13 11-19 6-13 5-14 4-16 2-14v-27l-3-19v-5h-2l-7-21-8-16-9-14-11-13-9-8-16-11-16-8-20-7-16-3-21-1-21 2-26 6-15 5-10 5 9 18 3 9 8 17v2h2l2 6 17-6 12-2 1-1 7-1h25l10 2 16 6 10 7 12 12 3 7 5 11 3 12v14l8 11 11 13 2 3-23 1-2 9-5 13-9 19-10 16-10 14-2 3-1 6-5 1-5 5-9 11-8 8-8 7-13 11-5 4-6 1-4-4-5-12-9-19-15-30-10-21-8-16-8-17-6-14h2l5 5 12 23 13 26 8 18 7 14 11 23 7 14 1 4 5-1 8-8 8-7 23-23 7-8 3-3h-4l-8-17-10-19-11-22-11-23-9-19-11-22v-2h-2l-13-27-19 9-7 3-12 8-2 4-3 17-2 6v7l4 10v9l-2-3-5-10v-3l-6 5-1 2-4-1-9-9-2-5 5-10-8 7-13 12-11 11-2 5v6l-1 1-11 2-8 7-7 7-1 2h-2l-2 4-12 12-9 11-7 7-9 11-13 15-5 7h-2l-2 4-12 14-1 2h-2l-2 4-11 12-4 4-4-1 3-5 15-16 7-8 22-26 8-9 7-8 9-10 7-8 7-7 7-8 15-16 3-5-9-2-11-6-10-9-6-10-5-12v-3l-8 7-33 33h-2v2h-2v2l-8 7-14 14-9 10-34 34h-2l-2 4h-2v2l-7 6-1 2h-2v2h-2v2h-2v2h-2l-2 4h-2v2h-2l-2 4-10 10-7 8-12 12-5-1 2-6 11-22 7-12 45-90 6-9h3l2-8-4 6-5-1-11-11 1-5 5-11 2-10v-12l-3-14-6-11-8-7-10-4-13 26-10 19-13 26 1 5 9 6 14 3 2 3v14l-1 1h-13l-15-5-10-5-1 5-20 39-10 19-14 28-10 19-9 19-4 6h-4l1-6 21-42 10-19 14-28 10-19 12-24-2-4-7-9-6-14-2-10v-23l3-13 8-16 5-5 14 14-2 5-4 8-2 7-1 14 3 16 4 8 3-4 26-52 8-14-6-1v-18l14 1 7-12 19-38 10-19 10-20 10-19 10-20 10-19 24-47 23-45 8-16z" fill="#A93388"/>
<path transform="translate(1177,281)" d="m0 0 21 1 19 4 20 7 15 8 16 12 10 9 10 12 11 18 8 19 3 10v3h2l4 24v27l-3 19-5 18-8 18-10 18-10 13-8 10-9 9-11 8-12 9-7 5-4-1-5-10h-2l-1-7h-3l5 12 5 11 3 3-5-2-15-30-6-13-7 6-13 14-2-1 7-7 9-11 5-5 3-1 2 1v-6l12-17 8-13 9-17 6-15 4-12 2-1 20-1-11-12-10-14v-14l-4-15-8-16-12-12-12-7-15-5-7-1h-25l-7 1-5 2-11 2-12 4h-2l-2-6h-2l-11-23-3-9-7-15 19-8 23-6 17-3z" fill="#010001"/>
<path transform="translate(1048,198)" d="m0 0h5l4 6v2h2l13 26 11 23 3 6 2 9h2l10 20v2l34-11 23-5 7-1h30l20 3 20 6 17 8 15 10 13 12 8 8 5 6 3 6 9 14 9 21 4 13 4 21 1 11v11l-2 19-4 19-6 17-9 19-10 16-11 14-19 19-16 12-14 9-4-2-8-18-2-6 5 1 1 5 4 5 3 7 4-1 14-10 13-10 8-7 8-9 10-13 11-19 6-13 5-14 4-16 2-14v-27l-3-19v-5h-2l-7-21-8-16-9-14-11-13-9-8-16-11-16-8-20-7-16-3-21-1-21 2-26 6-15 5-10 5 9 18 3 9 8 17v2h2l2 6 17-6 12-2 1-1 7-1h25l10 2 16 6 10 7 12 12 3 7 5 11 3 12v14l8 11 11 13 2 3-23 1-2 9-5 13-9 19-10 16-10 14-2 3-1 6-5 1-5 5-9 11-8 8-8 7-13 11-5 4-6 1-4-4-5-12-9-19-15-30-10-21-8-16-8-17-6-14h2l5 5 12 23 13 26 8 18 7 14 11 23 7 14 1 4 5-1 8-8 8-7 23-23 7-8 3-3h-4l-8-17-10-19-11-22-11-23-9-19-11-22v-2h-2l-13-27-19 9-2-1 7-5v-3l-19 10-7 5-1-1-3-16-5-12-6-9-8-8-8-5v-2h-3l-2-4 11-6 17-10h2v-2l13-6-5-12-20-41-11-23-5-10z" fill="#4D1646"/>
<path transform="translate(1125,361)" d="m0 0 3 3 11 23v2h2l11 23 20 40 11 23 18 36v2l4-1v3l-8 7-7 8-24 24-8 7-4 3-4-1-4-10-11-23-6-12-11-23-12-25-10-19-6-12-3-1 2 5 9 20 6 12-1 3-16-32-10-21v-3l-3-1 4-2 4 9 2 3-1-8-3-7v-7l3-9 3-17 9-7 8-5 10-4z" fill="#010000"/>
<path transform="translate(1168,349)" d="m0 0h20l14 3 12 5 11 7 7 8 3 5 3 3 5 9v-3h2l1 6-2 3 4 16-6-5-9-11-11-13-6-7h-18l-5-3-7-8-9-8h-1l1 84h20l-1-13v-34l2-4 7 1 7 8 12 16 16 21 3 5-3 12-9 21-8 15-11 17-5 6-3-2-13-28-20-41-9-19-19-38-5-11-4-10-1-4 10-4h4v-2l7-2z" fill="#040104"/>
<path transform="translate(969,59)" d="m0 0 4 4-8 16-20 39-19 38-10 19-14 28-10 19-20 40-10 19-17 34-3 5v2l16 8 7 6 9 13 5 13 2 13v12l-2 13-6 16-6 10-5-1-11-11 1-5 5-11 2-10v-12l-3-14-6-11-8-7-10-4-13 26-10 19-13 26 1 5 9 6 14 3 2 3v14l-1 1h-13l-15-5-10-5-1 5-20 39-10 19-14 28-10 19-9 19-4 6h-4l1-6 21-42 10-19 14-28 10-19 12-24-2-4-7-9-6-14-2-10v-23l3-13 8-16 5-5 14 14-2 5-4 8-2 7-1 14 3 16 4 8 3-4 26-52 8-14-6-1v-18l14 1 7-12 19-38 10-19 10-20 10-19 10-20 10-19 24-47 23-45 8-16z" fill="#AA3489"/>
<path transform="translate(1175,355)" d="m0 0 4 2 8 7 8 9 3 1h18l10 11 9 11 12 14-4-15 1-3 1-2v-4h-2l1 3-2 2-6-14 3-1-4-6 1-2 7 9 4 10 3 12v14l8 11 11 13 2 3-23 1-2 9-5 13-9 19-10 16-10 14-2 3-1 6-5 1-5 5-9 11-8 8-8 7-13 11-5 4-6 1-4-4-5-12-9-19-15-30-10-21-8-16-8-17-6-14h2l5 5 12 23 13 26 8 18 7 14 11 23 7 14 1 4 5-1 8-8 8-7 23-23 7-8 3-3h-4l-8-17-10-19-11-22-11-23-9-19-8-16-7-15v-7l-1-6 3 3 17 35 8 16 14 29 17 35 10 22h3l7-10 12-20 8-17 6-16 1-6-4-6-16-21-12-16-5-6-7-1-1 3v47l-20 1-1-1z" fill="#A93388"/>
<path transform="translate(1034,340)" d="m0 0 5 1 5 10 3-1-3-6 1-2 6 4 7 8 5 11 2 10v9l-3-3-7-14 2 7 3 10 2 5v5l-8 8-8 7-16 15-2 2-10-1-11-4-9-7-6-9-4-11-1-11 3-6 12-12 11-9 12-10z"/>
<path transform="translate(1575,320)" d="m0 0h2l14 29 20 41 14 29 10 19v2h-21l-8-16-4-9v-2h-52l-2 6-9 20-1 1h-21l2-5 19-40h54l-4-10-16-33-6-13 2-5z" fill="#AA3489"/>
<path transform="translate(457,320)" d="m0 0h2l17 35 21 43 11 23 9 17v2h-21l-8-16-4-9v-2h-52l-2 6-9 20-1 1h-21l9-20 12-25h55l-11-22-13-28-2-4 1-7z" fill="#AA3489"/>
<path transform="translate(1095,303)" d="m0 0h3l19 39 6 13-14 7-3 3-13 7-7 5-1-1-3-16-5-12-6-9-8-8-5-3-1-3 25-15z" fill="#020002"/>
<path transform="translate(1439,323)" d="m0 0h22l-8 16-14 29-26 53-10 21-2 1-9-19 3-9 15-31 13-28z" fill="#AA3489"/>
<path transform="translate(602,364)" d="m0 0 6 4 13 12 2 1h16l8-3 4-3 4 2 7 8 3 2-2 4-10 6-11 3-19 1v39h-21z" fill="#AA3489"/>
<path transform="translate(1293,333)" d="m0 0 5 5 9 16 8 21 5 22 2 17v11l-2 19-4 19-6 17-9 19-10 16-11 14-19 19-16 12-14 9-4-2-8-18-2-6 5 1 1 5 4 5 3 7 4-1 14-10 13-10 8-7 8-9 10-13 11-19 6-13 5-14 4-16 2-14v-27l-4-24-2-10-3-9-2-4v-3h-2l-2-10-3-7-4-6z" fill="#A93388"/>
<path transform="translate(603,322)" d="m0 0 42 1 11 4 6 4 5 5 4 5 4 8 2 11-1 1h-20l-2-7-4-8-5-3-4-1-19-1-16-15-3-2z" fill="#AA3489"/>
<path transform="translate(1177,322)" d="m0 0 45 1 11 4 6 4 7 8 4 9v8h-20l-4-9-2-3-7-2-20-1-9-7-7-7-4-3z" fill="#AA3489"/>
<path transform="translate(1343,323)" d="m0 0h22l15 31v2l-6 1h-13l-4-4-11-23z" fill="#AA3489"/>
<path transform="translate(964,394)" d="m0 0v3l-76 76h-2l-2 4-32 32-3 4h-2v2l-5 5-3 1-2 4-6 7-16 14-3 1 1-6 8-16 10-21 10-19 15-29 12-23 2-1-2 6-27 54-9 17-15 30 7-6 84-84 8-7z" fill="#4A1544"/>
<path transform="translate(987,431)" d="m0 0 4 2 13 6 6 2-1 4-10 10-7 8-15 16-10 11-7 8-12 14-9 10-9 11-27 30-2 4 4-1 10-10 6-8h2l2-4 12-14 1-2h2l2-4 9-11 13-15 9-10 12-14 11-11 1-2h2l2-4 12-12 5-1-5 4-8 8-7 8-15 16-18 20-9 11-12 14-9 11-12 14-11 12-4 5-6 3-3-2 1-5 9-11 8-8 9-11 10-11 9-11 11-12 7-8 10-11 7-8 10-10 7-8 10-10 1-2-6-1-12-6z" fill="#4A1544"/>
<path transform="translate(1166,342)" d="m0 0h25l10 2 16 6 10 7 12 12-1 2h-1l3 6-5 1-9-12-10-7-11-5-10-3-7-1h-27l4-2 8-1-3-3h-11v-1z" fill="#4B1544"/>
<path transform="translate(1212,511)" d="m0 0v3l1 7 17 34 1 5 20-14 13-11 13-13v3l-9 10-8 7-16 12-11 8-4-1-5-10h-2l-1-7h-3l5 12 5 11 3 3-5-2-15-30-6-13-7 6-13 14-2-1 7-7 9-11 5-5 3-1 2 1v-6z" fill="#4A1544"/>
<path transform="translate(1034,340)" d="m0 0 5 1 5 10 3-1-3-6 1-2 6 4 7 8 5 11 2 10v9l-3-3-7-14 2 7 3 10 2 5v5l-2-4-11-21-12-27z" fill="#4B1545"/>
<path transform="translate(976,45)" d="m0 0h3l8 14 11 23-1 3 3 7-1 3h2v4l2 1 2 7 2 1-3 3-16-33-10-20-4 5-4-1v-6z" fill="#501748"/>
<path transform="translate(967,399)" d="m0 0h2l5 13 3 6-1 2-5-8-4-10-143 143-7 8-16 16h-6l1-2 5-1 16-16 14-16h2v-2l4-4h2v-2h2v-2h2v-2h2l2-4 4-4h2v-2l8-7 38-38 5-6h2l2-4 14-14h2v-2h2v-2l8-7z" fill="#4A1544"/>
<path transform="translate(1010,276)" d="m0 0 5 5 1 4h2l15 31v2l2 1-9 1-16-33-2-8z" fill="#4A1544"/>
<path transform="translate(1081,416)" d="m0 0 3 4 23 47 2 4-1 3-11-22-7-13-3-1 2 5 9 20 6 12-1 3-16-32-10-21v-3l-3-1 4-2 4 9 2 3-1-8-2-4z" fill="#4A1544"/>
<path transform="translate(1117,490)" d="m0 0 3 4 14 28 11 23 7 14v2l7-4 16-15 20-20v3l-29 29-8 7-4 3-4-1-4-10-11-23-6-12-11-23z" fill="#4A1544"/>
<path transform="translate(1014,355)" d="m0 0 2 1-12 11-8 7-6 7v10l4 13 6 9 10 7 11 3h6l20-18h3l-9 9-8 7-5 5-10-1-11-4-9-7-6-9-4-11-1-11 3-6 12-12 11-9z" fill="#4A1544"/>
<path transform="translate(1235,368)" d="m0 0 5 5 4 7 3 7 3 12v13h-2l-4-13-1-7h2v-6h-2l1 3-2 2-6-14 3-1-4-6z" fill="#A73387"/>
<path transform="translate(1047,345)" d="m0 0 6 3 6 8 5 12v10h-2l-11-24-4-7z" fill="#0E040D"/>
<path transform="translate(1170,343)" d="m0 0 3 1-1 1 4 2-15 3-16 3-4-2 6-3 3-2 8-2z" fill="#A93388"/>
<path transform="translate(844,467)" d="m0 0 1 2-27 54-9 16-1-2 18-36 10-19z" fill="#4A1544"/>
<path transform="translate(1059,401)" d="m0 0h2l-2 6-2 2-1-2-7 7-8 7-11 11-1 2-1 9-1 1h-9v-1l8-1 1-9 7-8 14-14 8-7z" fill="#4A1544"/>
<path transform="translate(1020,342)" d="m0 0 2 1-12 11-2 4-3 1-5 5-9 8h-2l1-9 3-4-1 5v3l10-9 12-11z" fill="#4A1544"/>
<path transform="translate(1120,511)" d="m0 0 3 3 9 19 8 16 6 13-1 3-21-43-4-9z" fill="#4A1544"/>
<path transform="translate(1235,368)" d="m0 0 5 5 4 7 2 4-1 3-2-1 1 3-2 2-6-14 3-1-4-6z" fill="#A33184"/>
<path transform="translate(1186,483)" d="m0 0 3 4 10 19 2 7 4-1v3l-5 3-1-5-12-25z" fill="#4A1544"/>
<path transform="translate(1246,384)" d="m0 0 2 2 3 10 2 14v7l-4-4v-14l-3-12z" fill="#4A1544"/>
<path transform="translate(881,375)" d="m0 0h1v23l-7 16-1-3 4-11 2-13z" fill="#4A1544"/>
<path transform="translate(1300,355)" d="m0 0h2v3h2l5 13 2 9-1 4-7-21z" fill="#4A1544"/>
<path transform="translate(1048,198)" d="m0 0h5l5 8-2 1-3-1-1 2z" fill="#AA3489"/>
<path transform="translate(1010,276)" d="m0 0 5 5 2 5-7-1-2-6z" fill="#AA3489"/>
<path transform="translate(1006,110)" d="m0 0 3 3 3 8-2 2-5-10z" fill="#601C54"/>
<path transform="translate(1213,500)" d="m0 0v3l-4 6-3 2-2-2 1-3 1 2z" fill="#4A1544"/>
<path transform="translate(1240,386)" d="m0 0 3 2v-2h2l1 6-3 3-2-3z" fill="#4D1646"/>
</svg>
